<svg xmlns="http://www.w3.org/2000/svg" width="256" height="256" viewBox="0 0 256 256" role="img" aria-label="VariableGroups">
  <defs>
    <filter id="shadow" x="-20%" y="-20%" width="140%" height="140%">
      <feDropShadow dx="0" dy="10" stdDeviation="10" flood-color="#000" flood-opacity="0.35"/>
    </filter>
  </defs>

  <rect x="28" y="28" width="200" height="200" rx="32" fill="#0f1726" stroke="rgba(255,255,255,0.10)"/>

  <g filter="url(#shadow)" fill="none" stroke-linecap="round" stroke-linejoin="round">
    <path d="M92 92 C78 92, 78 110, 92 112 C78 114, 78 132, 92 132" stroke="rgba(231,237,247,0.70)" stroke-width="5"/>
    <path d="M164 92 C178 92, 178 110, 164 112 C178 114, 178 132, 164 132" stroke="rgba(231,237,247,0.70)" stroke-width="5"/>

    <path d="M92 156 C78 156, 78 174, 92 176 C78 178, 78 196, 92 196" stroke="rgba(231,237,247,0.45)" stroke-width="5"/>
    <path d="M164 156 C178 156, 178 174, 164 176 C178 178, 178 196, 164 196" stroke="rgba(231,237,247,0.45)" stroke-width="5"/>
  </g>

  <g fill="#e7edf7" stroke="rgba(15,23,38,0.70)" stroke-width="2">
    <circle cx="110" cy="112" r="7"/>
    <circle cx="128" cy="132" r="7"/>
    <circle cx="146" cy="112" r="7"/>
    <circle cx="110" cy="176" r="7"/>
    <circle cx="128" cy="196" r="7"/>
    <circle cx="146" cy="176" r="7"/>
  </g>
</svg>

